<?xml version="1.0" encoding="UTF-8"?>
<svg id="Flow" xmlns="http://www.w3.org/2000/svg" xmlns:xlink="http://www.w3.org/1999/xlink" viewBox="0 0 217.53 438.64">
  <defs>
    <style>
      .cls-1 {
        stroke: url(#linear-gradient-2);
      }

      .cls-1, .cls-2, .cls-3, .cls-4 {
        fill: none;
        stroke-miterlimit: 10;
        stroke-width: 2px;
      }

      .cls-2 {
        stroke: url(#linear-gradient-4);
      }

      .cls-3 {
        stroke: url(#linear-gradient-3);
      }

      .cls-4 {
        stroke: url(#linear-gradient);
      }
    </style>
    <linearGradient id="linear-gradient" x1="0" y1="105.11" x2="147.06" y2="105.11" gradientUnits="userSpaceOnUse">
      <stop offset="0" stop-color="#5761ac"/>
      <stop offset=".97" stop-color="#62c088"/>
    </linearGradient>
    <linearGradient id="linear-gradient-2" y1="-94.25" y2="-94.25" gradientTransform="translate(0 250.72) scale(1 -1)" xlink:href="#linear-gradient"/>
    <linearGradient id="linear-gradient-3" y1="105.11" x2="74.53" y2="105.11" xlink:href="#linear-gradient"/>
    <linearGradient id="linear-gradient-4" y1="-94.25" x2="74.53" y2="-94.25" gradientTransform="translate(0 250.72) scale(1 -1)" xlink:href="#linear-gradient"/>
  </defs>
  <g id="Layer_2" data-name="Layer 2">
    <path id="Step_1_Open" data-name="Step 1 Open" class="cls-4" d="m1,0c0,17.48,0,34.95,0,52.43,0,20.85,144.75,100.33,144.75,122.03,0,39.5.21,0,.32,35.77"/>
    <path id="Step_1_Open-2" data-name="Step 1 Open" class="cls-1" d="m1,438.64c0-17.48,0-34.95,0-52.43,0-20.85,144.75-71.14,144.75-92.85.11-35.77.21-6.27.32-42.05"/>
  </g>
  <g id="Layer_1" data-name="Layer 1">
    <path id="Step_1_Open-3" data-name="Step 1 Open" class="cls-3" d="m1,0c0,17.48,0,34.95,0,52.43,0,20.85,72.37,79.32,72.37,101.02.05,35.77.11,21.01.16,56.78"/>
    <path id="Step_1_Open-4" data-name="Step 1 Open" class="cls-2" d="m1,438.64c0-17.48,0-34.95,0-52.43,0-20.85,72.37-59.4,72.37-81.11.05-35.77.11-18.01.16-53.79"/>
  </g>
</svg>